# xmcd
#
# Track frame offsets: 
#        150
#        17351
#        35589
#        50793
#        67083
#        83668
#        96273
#        123177
#        142428
#        160262
#
# Disc length: 2370 seconds
#
# Revision: 0
# Processed by: cddbd v1.5.2PL0 Copyright (c) Steve Scherf et al.
# Submitted via: ExactAudioCopyFreeDBPlugin 1.0
#
DISCID=8a09400a
DTITLE=Gordon Lightfoot - An Introduction To Gordon Lightfoot
DYEAR=2018
DGENRE=Pop-Folk
TTITLE0=If You Could Read My Mind
TTITLE1=Summer Side Of Life
TTITLE2=Beautiful
TTITLE3=Sundown
TTITLE4=Carefree Highway
TTITLE5=Rainy Day People
TTITLE6=The Wreck Of The Edmund Fitzgerald
TTITLE7=Daylight Katy
TTITLE8=The Circle Is Small
TTITLE9=Baby Step Back
EXTD=
EXTT0=
EXTT1=
EXTT2=
EXTT3=
EXTT4=
EXTT5=
EXTT6=
EXTT7=
EXTT8=
EXTT9=
PLAYORDER=
